# xmcd
#
# Track frame offsets:
#	150
#	21352
#	38879
#	59096
#	78393
#	96010
#	114207
#	135104
#	151296
#	167578
#	187785
#	209282
#	234434
#	250106
#	267898
#	287710
#
# Disc length: 4105 seconds
#
# Revision: 1
# Processed by: cddbd v1.5.2PL0 Copyright (c) Steve Scherf et al.
# Submitted via: EasyCDDAExtractor 10.0.2.1
#
DISCID=ca100710
DTITLE=Various Artist - 2006 Steppers Hall Of Fame Vol 10
DYEAR=2006
DGENRE=R&B
TTITLE0=Jeff Hendricks - Celebrate (D.J. Darren's Ext Mix)
TTITLE1=Jeff Hendricks - Olde School Party
TTITLE2=Zoe Spencer - Come 2 Me
TTITLE3=Zoe Spencer - Magic Carpet
TTITLE4=Tyrese w/R. Kelly - Signs Of Love Makin'
TTITLE5=Kindred and the Family Soul - Thru Love
TTITLE6=Wendell B. - Heaven Sent Me An Angel
TTITLE7=Fantasia - Hood Boy
TTITLE8=Brian McKnight - Comfortable
TTITLE9=Freddie Jackson - More Than Friends
TTITLE10=Marvin Jr. - Tell U, I Love U
TTITLE11=Silhouette Brown - A Little More
TTITLE12=Shareeta - How Good Love Feels
TTITLE13=Steve Cole - Serenity
TTITLE14=Sam Salter - Your Face
TTITLE15=John Legend - Hello It's Me
EXTD=
EXTT0=
EXTT1=
EXTT2=
EXTT3=
EXTT4=
EXTT5=
EXTT6=
EXTT7=
EXTT8=
EXTT9=
EXTT10=
EXTT11=
EXTT12=
EXTT13=
EXTT14=
EXTT15=
PLAYORDER=
